<?xml version="1.0" encoding="iso-8859-1"?>
<!-- Generator: Adobe Illustrator 19.0.0, SVG Export Plug-In . SVG Version: 6.00 Build 0)  -->
<svg version="1.1" id="Layer_1" xmlns="http://www.w3.org/2000/svg" xmlns:xlink="http://www.w3.org/1999/xlink" x="0px" y="0px"
	 viewBox="0 0 511.999 511.999" style="enable-background:new 0 0 511.999 511.999;" xml:space="preserve">
<g>
	<g>
		<path d="M490.121,202.894L309.105,21.878c-29.78-29.171-76.432-29.171-106.21,0L21.878,202.894
			c-29.102,29.402-29.102,76.807,0,106.208l181.016,181.016c29.78,29.175,76.432,29.175,106.21,0l181.016-181.016
			C519.222,279.701,519.222,232.295,490.121,202.894z M391.011,195.994c0,8.285-6.717,15.001-15.001,15.001h-90.008v195.017
			c0,8.285-6.717,15.001-15.001,15.001h-30.003c-8.285,0-15.001-6.717-15.001-15.001V210.996h-90.008
			c-8.285,0-15.001-6.717-15.001-15.001v-30.003c0-8.287,6.717-15.001,15.001-15.001H376.01c8.285,0,15.001,6.715,15.001,15.001
			V195.994z"/>
	</g>
</g>
<g>
</g>
<g>
</g>
<g>
</g>
<g>
</g>
<g>
</g>
<g>
</g>
<g>
</g>
<g>
</g>
<g>
</g>
<g>
</g>
<g>
</g>
<g>
</g>
<g>
</g>
<g>
</g>
<g>
</g>
</svg>
